<svg width="66" height="95" fill="none" xmlns="http://www.w3.org/2000/svg"><g clip-path="url(#a)"><path d="M65.573 90.448c0 2.48-1.935 4.494-4.325 4.494l-55.934.066c-1.903 0-3.518-1.268-4.101-3.034A4.536 4.536 0 0 1 .98 90.53L.893 6.881c0-2.478 1.935-4.493 4.325-4.493l51.36-.058 4.573-.008c2.391 0 4.334 2.006 4.334 4.485l.088 83.641z" fill="url(#b)"/><path d="m59.776 89.967-52.999.058c-1.287 0-2.326-1.078-2.326-2.412L4.37 9.767c0-1.335 1.04-2.413 2.326-2.413l52.991-.058c1.288 0 2.327 1.078 2.327 2.413l.08 77.846c.008 1.326-1.032 2.412-2.319 2.412z" fill="#fff"/><path d="m52.333 13.713-38.656.05c-1.28 0-2.327-1.078-2.327-2.404l-.008-6.683c0-1.326 1.04-2.413 2.319-2.413l38.664-.041c1.28 0 2.326 1.078 2.326 2.404l.008 6.683c-.008 1.327-1.047 2.405-2.326 2.405zM13.661 3.492c-.624 0-1.135.53-1.135 1.177l.008 6.683c0 .646.511 1.177 1.135 1.177l38.664-.042c.624 0 1.135-.53 1.135-1.177l-.008-6.683c0-.646-.511-1.177-1.135-1.177l-38.664.042z" fill="url(#c)"/><path d="m51.238 5.116-36.098.041a.73.73 0 0 1-.72-.746V.788a.73.73 0 0 1 .72-.747L51.23 0c.4 0 .72.332.72.746V4.37a.719.719 0 0 1-.712.747z" fill="url(#d)"/><path d="m15.172 5.157 36.034-.041a.765.765 0 0 0 .751-.78V2.562l-37.544.041v1.775c0 .43.343.78.76.78zM27.836 81.212l-3.118-19.567-2.526 8.515-7.228.008c-.44 0-.791-.365-.791-.82 0-.457.351-.822.791-.822l6.068-.008 4.166-14.02 3.118 19.617 4.045-13.473 2.151 6.384 4.845-12.18 4.71 19.318 1.774-6.143 5.197-.009c.44 0 .791.365.791.821 0 .456-.351.821-.791.821l-4.022.008-3.078 10.654-4.94-20.263-4.614 11.582-1.943-5.762-4.605 15.339z" fill="#58D6F4"/><path d="m22.48 43.487-10.162.008c-1.64 0-2.982-1.384-2.982-3.084L9.32 25.678c0-1.7 1.335-3.093 2.974-3.093l10.162-.008c1.639 0 2.982 1.384 2.982 3.084l.016 14.733c0 1.7-1.335 3.085-2.974 3.093zM12.286 23.481c-1.167 0-2.11.986-2.11 2.197l.015 14.733c0 1.21.952 2.189 2.119 2.189l10.161-.008c1.168 0 2.111-.987 2.111-2.197l-.016-14.734c0-1.21-.951-2.189-2.118-2.189l-10.162.009z" fill="url(#e)"/><path d="M17.387 40.66c4.805-.008 6.3-2.885 6.3-2.885a3.533 3.533 0 0 0-.856-.78c-1.263-.854-2.278-1.219-2.702-1.584-.432-.356-.672-.878-.672-.878l-.263.166s-.16-.573-.072-1.443c0 0 .375-.1.655-1.418.448.091.976-1.086.728-1.517-.16-.282-.352-.257-.488-.19.136-.59.752-3.848-2.638-3.848-3.39 0-2.775 3.258-2.63 3.847-.136-.066-.328-.091-.488.19-.248.432.288 1.61.735 1.518.28 1.318.664 1.41.664 1.41.096.862-.072 1.442-.072 1.442l-.264-.166s-.24.514-.672.88c-.431.364-1.439.737-2.702 1.591-.368.249-.647.498-.855.78-.008.016 1.495 2.893 6.292 2.885z" fill="url(#f)"/><path d="m49.031 27.278-19.564.025a.675.675 0 0 1-.663-.688v-.116c0-.382.295-.689.663-.689l19.564-.024c.368 0 .664.306.664.688v.116a.68.68 0 0 1-.664.688z" fill="url(#g)"/><path d="m41.836 31.142-12.369.016a.675.675 0 0 1-.663-.688v-.116c0-.381.295-.688.663-.688l12.369-.017c.367 0 .663.307.663.688v.116a.675.675 0 0 1-.663.689z" fill="url(#h)"/><path opacity=".6" d="m55.779 35.735-26.304.033a.675.675 0 0 1-.663-.688v-.116c0-.382.296-.688.663-.688l26.304-.034c.368 0 .663.307.663.689v.116c-.008.381-.303.688-.663.688z" fill="url(#i)"/><path opacity=".6" d="m55.211 48.644-43.877.05a.7.7 0 0 1-.687-.713v-.066a.7.7 0 0 1 .687-.713l43.877-.05a.7.7 0 0 1 .688.713v.066a.7.7 0 0 1-.688.713z" fill="url(#j)"/><path opacity=".6" d="m55.779 40.245-26.304.033a.675.675 0 0 1-.663-.688v-.116c0-.381.296-.688.663-.688l26.304-.033c.368 0 .663.307.663.688v.116a.674.674 0 0 1-.663.688z" fill="url(#k)"/></g><defs><linearGradient id="g" x1="28.805" y1="26.551" x2="49.69" y2="26.563" gradientUnits="userSpaceOnUse"><stop stop-color="#6CBCFC"/><stop offset="1" stop-color="#458DFC"/></linearGradient><linearGradient id="b" x1="-8.064" y1="34.748" x2="75.087" y2="60.8" gradientUnits="userSpaceOnUse"><stop stop-color="#6CBCFC"/><stop offset=".171" stop-color="#5EABFC"/><stop offset=".408" stop-color="#509AFC"/><stop offset=".67" stop-color="#4890FC"/><stop offset="1" stop-color="#458DFC"/></linearGradient><linearGradient id="d" x1="14.411" y1="2.58" x2="51.957" y2="2.58" gradientUnits="userSpaceOnUse"><stop stop-color="#B0F4FF"/><stop offset="1" stop-color="#69DCFC"/></linearGradient><linearGradient id="e" x1="14.523" y1="29.208" x2="24.387" y2="41.486" gradientUnits="userSpaceOnUse"><stop stop-color="#6CBCFC"/><stop offset="1" stop-color="#458DFC"/></linearGradient><linearGradient id="f" x1="13.5" y1="30.029" x2="23.364" y2="42.308" gradientUnits="userSpaceOnUse"><stop stop-color="#B0F4FF"/><stop offset=".099" stop-color="#A1EFFE"/><stop offset=".299" stop-color="#88E7FD"/><stop offset=".509" stop-color="#77E1FD"/><stop offset=".734" stop-color="#6CDDFC"/><stop offset="1" stop-color="#69DCFC"/></linearGradient><linearGradient id="c" x1="-4.145" y1="-21.375" x2="55.44" y2="6.295" gradientUnits="userSpaceOnUse"><stop stop-color="#CFE9FF"/><stop offset="1" stop-color="#A1D6FB"/></linearGradient><linearGradient id="h" x1="28.808" y1="30.404" x2="42.498" y2="30.404" gradientUnits="userSpaceOnUse"><stop stop-color="#6CBCFC"/><stop offset="1" stop-color="#458DFC"/></linearGradient><linearGradient id="i" x1="28.813" y1="35.01" x2="56.438" y2="35.01" gradientUnits="userSpaceOnUse"><stop stop-color="#6CBCFC"/><stop offset="1" stop-color="#458DFC"/></linearGradient><linearGradient id="j" x1="10.646" y1="47.927" x2="55.897" y2="47.927" gradientUnits="userSpaceOnUse"><stop stop-color="#6888C8"/><stop offset="1" stop-color="#458DFC"/></linearGradient><linearGradient id="k" x1="28.818" y1="39.519" x2="56.443" y2="39.519" gradientUnits="userSpaceOnUse"><stop stop-color="#6CBCFC"/><stop offset="1" stop-color="#458DFC"/></linearGradient><clipPath id="a"><path fill="#fff" transform="translate(.893)" d="M0 0h64.68v95H0z"/></clipPath></defs></svg>