<svg width="99" height="90" fill="none" xmlns="http://www.w3.org/2000/svg"><g clip-path="url(#a)"><path d="m60.23 43.315-9.726 8.665L9.432 88.566a5.764 5.764 0 0 1-3.845 1.444c-1.514 0-3.028-.573-4.128-1.71-2.167-2.233-1.884-5.726.61-7.63l48.435-36.843 5.337-4.056 4.39 3.544z" fill="url(#b)"/><path d="m50.08 52.42-9.574 8.522-.883-8.757 5.24-3.984 5.217 4.22z" fill="#3A81D6" fill-opacity=".8"/><path d="M98.547 29.908c0 16.52-14.246 29.918-31.803 29.918-11.066 0-20.814-5.316-26.51-13.387-3.344-4.732-5.294-10.416-5.294-16.531C34.94 13.387 49.186 0 66.744 0c7.929 0 15.172 2.724 20.737 7.231 6.775 5.49 11.067 13.612 11.067 22.677z" fill="url(#c)"/><path d="M66.744 53.21c13.685 0 24.778-10.433 24.778-23.302 0-12.87-11.093-23.302-24.778-23.302-13.685 0-24.779 10.433-24.779 23.302S53.06 53.209 66.744 53.209z" fill="#fff"/><path opacity=".06" d="M98.547 29.908c0 16.52-14.246 29.918-31.803 29.918-11.066 0-20.814-5.316-26.51-13.387C76.1 43.694 85.553 15.118 87.491 7.231c6.764 5.49 11.055 13.612 11.055 22.677z" fill="#1A6FB5" fill-opacity=".5"/><path d="M66.744 29.959c2.876 0 5.206-2.192 5.206-4.896 0-2.704-2.33-4.896-5.206-4.896-2.875 0-5.206 2.192-5.206 4.896 0 2.704 2.32 4.896 5.206 4.896zm0 2.448c-3.474 0-10.412 1.639-10.412 4.896v1.229c0 .676.588 1.229 1.307 1.229H75.87c.72 0 1.308-.553 1.308-1.23v-1.228c-.022-3.247-6.96-4.896-10.435-4.896z" fill="url(#d)"/></g><defs><linearGradient id="b" x1="6.08" y1="84.326" x2="54.557" y2="37.463" gradientUnits="userSpaceOnUse"><stop stop-color="#67C3F3"/><stop offset="1" stop-color="#5A98F2"/></linearGradient><linearGradient id="c" x1="53.59" y1="2.113" x2="75.305" y2="54.025" gradientUnits="userSpaceOnUse"><stop stop-color="#6888C8"/><stop offset="1" stop-color="#5A98F2"/></linearGradient><linearGradient id="d" x1="59.216" y1="28.395" x2="77.611" y2="37.935" gradientUnits="userSpaceOnUse"><stop stop-color="#B0F4FF"/><stop offset=".071" stop-color="#A6F1FF"/><stop offset=".294" stop-color="#8BE8FD"/><stop offset=".521" stop-color="#78E1FD"/><stop offset=".754" stop-color="#6DDDFC"/><stop offset="1" stop-color="#69DCFC"/></linearGradient><clipPath id="a"><path fill="#fff" d="M0 0h98.548v90H0z"/></clipPath></defs></svg>