<svg width="86" height="72" fill="none" xmlns="http://www.w3.org/2000/svg"><g clip-path="url(#a)"><path d="M71.224 14.01H14.205v57.117h57.019V14.011z" fill="url(#b)"/><path d="M13.97 14.01c.068 0 .137.028.235.056V71.1c-4.414.321-8.14-.716-11.098-3.377C1.013 65.833 0 63.613 0 61.1V34.408c0-3.395-.01-6.79-.01-10.185 0-4.101 2.37-7.083 6.724-9.102 2.242-1.028 4.729-1.184 7.255-1.11z" fill="url(#c)"/><path d="M61.265 14.002h5.338v57.107H18.826V14.02h5.672v-.596c0-2.046.01-4.102-.01-6.148-.02-1.431.394-2.68 1.593-3.652a4.539 4.539 0 0 1 2.92-1.027c3.411-.01 6.812-.01 10.224-.01 5.731 0 11.472.01 17.203 0 1.505 0 2.753.46 3.736 1.524.787.853 1.081 1.853 1.081 2.972-.01 2.157 0 4.313 0 6.469-.01.12 0 .257.02.45zm-30.613 0h8.74c5.072 0 10.155 0 15.228.009.403 0 .491-.12.491-.477-.02-1.606 0-3.212 0-4.817 0-.129-.02-.257-.04-.395H30.653v5.68z" fill="#fff"/><mask id="d" style="mask-type:alpha" maskUnits="userSpaceOnUse" x="18" y="2" width="49" height="70"><path d="M61.265 14.002h5.338v57.107H18.826V14.02h5.672v-.596c0-2.046.01-4.102-.01-6.148-.02-1.431.394-2.68 1.593-3.652a4.539 4.539 0 0 1 2.92-1.027c3.411-.01 6.812-.01 10.224-.01 5.731 0 11.472.01 17.203 0 1.505 0 2.753.46 3.736 1.524.787.853 1.081 1.853 1.081 2.972-.01 2.157 0 4.313 0 6.469-.01.12 0 .257.02.45zm-30.613 0h8.74c5.072 0 10.155 0 15.228.009.403 0 .491-.12.491-.477-.02-1.606 0-3.212 0-4.817 0-.129-.02-.257-.04-.395H30.653v5.68z" fill="#F7F9FC"/></mask><g mask="url(#d)"><path d="M62.246 0H22.5v14.02h39.746V0z" fill="url(#e)"/></g><path d="M85.714 24.076c0-3.78-2.212-6.597-6.144-8.643-2.418-1.257-5.161-1.496-7.973-1.44-.432.009-.373.22-.373.44v19.81c0 11.606 0 23.204-.01 34.81v2.065c1.77.055 3.45.065 5.102-.302 5.584-1.23 9.388-5.111 9.388-9.69.02-12.34.01-24.7.01-37.05z" fill="url(#f)"/><path d="M47.374 46.785V54.034c0 .761-.413 1.165-1.219 1.165-2.221.01-4.443.01-6.665 0-.737 0-1.15-.431-1.15-1.156v-7.257H30.662c-.953 0-1.347-.359-1.347-1.249V39.62c0-.899.384-1.257 1.337-1.257h7.678V31.15c0-.844.403-1.21 1.308-1.21h6.34c.993 0 1.377.348 1.377 1.293.01 2.257 0 4.505 0 6.762v.376h.423c2.438 0 4.876 0 7.314.01.894 0 1.278.367 1.278 1.202v5.945c0 .909-.374 1.257-1.328 1.257-2.428 0-4.856 0-7.274.01-.099-.01-.217-.01-.394-.01z" fill="url(#g)"/></g><defs><linearGradient id="b" x1="14.207" y1="42.566" x2="71.221" y2="42.566" gradientUnits="userSpaceOnUse"><stop stop-color="#B0F4FF"/><stop offset="1" stop-color="#69DCFC"/></linearGradient><linearGradient id="c" x1="0" y1="42.575" x2="14.207" y2="42.575" gradientUnits="userSpaceOnUse"><stop stop-color="#6CBCFC"/><stop offset="1" stop-color="#458DFC"/></linearGradient><linearGradient id="e" x1="22.496" y1="7.008" x2="62.244" y2="7.008" gradientUnits="userSpaceOnUse"><stop stop-color="#6CBCFC"/><stop offset="1" stop-color="#458DFC"/></linearGradient><linearGradient id="f" x1="71.216" y1="42.569" x2="85.715" y2="42.569" gradientUnits="userSpaceOnUse"><stop stop-color="#6CBCFC"/><stop offset="1" stop-color="#458DFC"/></linearGradient><linearGradient id="g" x1="29.321" y1="42.578" x2="56.389" y2="42.578" gradientUnits="userSpaceOnUse"><stop stop-color="#6888C8"/><stop offset="1" stop-color="#458DFC"/></linearGradient><clipPath id="a"><path fill="#fff" d="M0 0h85.714v71.155H0z"/></clipPath></defs></svg>