<svg width="67" height="85" fill="none" xmlns="http://www.w3.org/2000/svg"><g clip-path="url(#a)"><path d="m66.276 26.48-.206 39.801-.034 7.699c-.034 6.117-6.263 11.052-13.93 11.02l-38.296-.16C6.16 84.792-.034 79.81 0 73.676l.24-47.499c.017-4.951 4.124-9.136 9.736-10.525l.018-2.555v-1.31l46.665.208-.017 3.865c5.595 1.453 9.65 5.654 9.634 10.62z" fill="url(#b)"/><path d="M60.133 1.773v.351l-.035 4.153-.034 4.073v.495c0 .766-.684 1.39-1.506 1.39h-.36l-2.258-.017-2.481-.016-2.26-.016-2.48-.016-2.293-.032-2.482-.016-2.259-.016-2.498-.016-2.276-.016-2.481-.016-2.259-.031-2.481-.016-2.26-.016-2.497-.016-2.276-.016-2.465-.016-2.258-.016-2.482-.016-2.276-.016-2.48-.016-2.277-.016h-.36c-.82 0-1.488-.64-1.488-1.406v-.367l.069-8.21V1.39C6.64.623 7.324 0 8.163 0h.359l4.757.032 4.757.032 2.276.016 2.482.016 2.258.016 4.74.048 2.482.016 2.258.016 2.482.016 2.259.016 2.48.016 2.26.016 2.481.016 2.259.015 2.515.032 2.26.016 2.48.016 2.276.016h.36c.838.016 1.489.64 1.489 1.406z" fill="url(#c)"/><path d="m60.133 2.14-.035 4.137-.034 4.073-2.036-.016-2.704-.016-2.481-.016h-2.721l-2.481-.016-2.704-.016-2.481-.016h-2.721l-2.482-.016-2.72-.016-2.465-.016h-2.72l-2.482-.016-2.72-.016-2.482-.016H18.96l-2.48-.016-2.722-.016-2.481-.016H8.573l-2.002-.016.069-8.21 4.757.017 5.185.032 2.481.016 2.72.015h2.482l5.185.032 2.721.016h2.481l2.721.016 2.464.016 2.721.016h2.481l2.721.016 2.465.016 2.72.016h2.482l2.72.016 1.986.016z" fill="url(#d)"/><path d="M66.226 34.884.189 34.593.051 61.92l66.036.291.139-27.327z" fill="#F7F9FC"/><path d="M66.237 34.884.201 34.593l-.025 4.919 66.036.291.025-4.919z" fill="#FBFCF7"/><path d="m25.942 45.58-4.26-.016.016-3.992-5.87-.017-.016 3.977-4.261-.015-.034 5.462 4.26.016-.017 3.992 5.87.017.017-3.977 4.26.016.035-5.463z" fill="url(#e)"/><path d="M54.896 46.906 33.78 46.81c-.565 0-1.027-.431-1.027-.958v-.447c0-.527.462-.959 1.027-.959l21.116.096c.565 0 1.027.431 1.027.959v.447c0 .527-.462.958-1.027.958z" fill="url(#f)"/><path opacity=".5" d="m54.879 52.767-21.116-.095c-.565 0-1.027-.431-1.027-.959v-.447c0-.527.462-.958 1.027-.958l21.116.096c.565 0 1.027.431 1.027.958v.447c0 .527-.462.959-1.027.959z" fill="url(#g)"/><path opacity=".08" d="M6.571 1.773v.351l.034 4.153.035 4.057v.495c0 .766.684 1.39 1.505 1.39h.36l2.276-.017 2.481-.016 2.259-.016 2.481-.016 2.259-.016 2.481-.016 2.259-.016 2.481-.016 2.276-.016 2.482-.015 2.258-.016 2.482-.016 2.258-.016 2.482-.016 2.276-.016 2.48-.016 2.26-.016 2.481-.016 2.259-.016 2.481-.016 2.276-.016h.36c.82 0 1.488-.64 1.488-1.406v-.367C33.608 11.18 8.06.367 8.06.367c-.822.016-1.489.64-1.489 1.406z" fill="#1A6FB5"/></g><defs><linearGradient id="b" x1="0" y1="11.333" x2="55.806" y2="93.856" gradientUnits="userSpaceOnUse"><stop stop-color="#6CBCFC"/><stop offset="1" stop-color="#458DFC"/></linearGradient><linearGradient id="c" x1="-674.925" y1="-39.931" x2="-30.037" y2="8.195" gradientUnits="userSpaceOnUse"><stop stop-color="#B0F4FF"/><stop offset=".053" stop-color="#A9F2FF"/><stop offset=".288" stop-color="#8DE8FE"/><stop offset=".525" stop-color="#79E1FD"/><stop offset=".762" stop-color="#6DDDFC"/><stop offset="1" stop-color="#69DCFC"/></linearGradient><linearGradient id="d" x1="6.579" y1="6.113" x2="60.135" y2="6.113" gradientUnits="userSpaceOnUse"><stop stop-color="#B0F4FF"/><stop offset=".053" stop-color="#A9F2FF"/><stop offset=".288" stop-color="#8DE8FE"/><stop offset=".525" stop-color="#79E1FD"/><stop offset=".762" stop-color="#6DDDFC"/><stop offset="1" stop-color="#69DCFC"/></linearGradient><linearGradient id="e" x1="23.548" y1="43.095" x2="14.28" y2="54.546" gradientUnits="userSpaceOnUse"><stop stop-color="#6CBCFC"/><stop offset="1" stop-color="#458DFC"/></linearGradient><linearGradient id="f" x1="56.127" y1="45.671" x2="30.95" y2="45.671" gradientUnits="userSpaceOnUse"><stop stop-color="#6CBCFC"/><stop offset="1" stop-color="#458DFC"/></linearGradient><linearGradient id="g" x1="32.734" y1="51.532" x2="55.906" y2="51.532" gradientUnits="userSpaceOnUse"><stop stop-color="#6888C8"/><stop offset="1" stop-color="#458DFC"/></linearGradient><clipPath id="a"><path fill="#fff" d="M0 0h66.276v85H0z"/></clipPath></defs></svg>