<svg width="66" height="95" fill="none" xmlns="http://www.w3.org/2000/svg"><g clip-path="url(#a)"><path d="M63.578 0H3.175C1.933 0 .93 1.028.93 2.3v90.407c0 1.272 1.004 2.3 2.246 2.3h60.403c1.242 0 2.246-1.028 2.246-2.3V2.3C65.817 1.028 64.813 0 63.578 0z" fill="url(#b)"/><path d="M59.613 4.098H7.133c-1.206 0-2.188 1.005-2.188 2.247v74.747c0 1.242.982 2.24 2.187 2.24h52.481c1.213 0 2.187-1.006 2.187-2.24V6.345c0-1.242-.974-2.247-2.187-2.247z" fill="#fff"/><path d="M44.103 39.636H22.65c-.982 0-1.778-.815-1.778-1.82V15.842c0-1.005.796-1.82 1.778-1.82h21.453c.982 0 1.778.815 1.778 1.82v21.966c0 1.005-.796 1.828-1.778 1.828z" fill="url(#c)"/><path d="M33.377 92.547c1.824 0 3.302-1.513 3.302-3.381 0-1.868-1.478-3.382-3.303-3.382-1.824 0-3.302 1.514-3.302 3.382s1.478 3.382 3.302 3.382z" fill="#fff"/><path d="M52.07 51.015H14.675c-.944 0-1.718-.792-1.718-1.76 0-.967.774-1.759 1.718-1.759h37.388c.944 0 1.718.792 1.718 1.76 0 .967-.766 1.759-1.71 1.759z" fill="url(#d)"/><path opacity=".6" d="M45.74 60.764H14.05c-.602 0-1.086-.503-1.086-1.112v-.122a1.1 1.1 0 0 1 1.087-1.112H45.74c.602 0 1.086.503 1.086 1.112v.122a1.096 1.096 0 0 1-1.086 1.112z" fill="url(#e)"/><path opacity=".3" d="M39.707 66.956h-25.76c-.544 0-.99-.457-.99-1.013v-.335c0-.556.446-1.013.99-1.013h25.752c.543 0 .99.457.99 1.013v.335c0 .556-.447 1.013-.982 1.013z" fill="url(#f)"/><path opacity=".6" d="M42.95 72.691H14.006c-.573 0-1.042-.48-1.042-1.066v-.213c0-.587.47-1.066 1.042-1.066H42.95c.573 0 1.042.48 1.042 1.066v.213c0 .579-.469 1.066-1.042 1.066z" fill="url(#g)"/><path d="M33.44 26.12c2.149 0 3.89-1.806 3.89-4.035 0-2.228-1.741-4.035-3.89-4.035-2.147 0-3.888 1.807-3.888 4.035 0 2.23 1.733 4.036 3.889 4.036zm0 2.018c-2.595 0-7.777 1.351-7.777 4.036v1.013c0 .557.439 1.013.976 1.013h13.62c.537 0 .977-.456.977-1.013v-1.013c-.017-2.676-5.2-4.035-7.795-4.035z" fill="#fff"/></g><defs><linearGradient id="b" x1="4.86" y1="45.03" x2="65.899" y2="50.076" gradientUnits="userSpaceOnUse"><stop stop-color="#6CBCFC"/><stop offset="1" stop-color="#458DFC"/></linearGradient><linearGradient id="c" x1="18.933" y1="19.292" x2="48.093" y2="33.804" gradientUnits="userSpaceOnUse"><stop stop-color="#B0F4FF"/><stop offset=".086" stop-color="#A3F0FE"/><stop offset=".297" stop-color="#8AE7FD"/><stop offset=".516" stop-color="#77E1FD"/><stop offset=".745" stop-color="#6DDDFC"/><stop offset="1" stop-color="#69DCFC"/></linearGradient><linearGradient id="d" x1="53.785" y1="49.257" x2="12.964" y2="49.257" gradientUnits="userSpaceOnUse"><stop stop-color="#6CBCFC"/><stop offset="1" stop-color="#458DFC"/></linearGradient><linearGradient id="e" x1="46.831" y1="59.588" x2="12.964" y2="59.588" gradientUnits="userSpaceOnUse"><stop stop-color="#6CBCFC"/><stop offset="1" stop-color="#458DFC"/></linearGradient><linearGradient id="f" x1="40.69" y1="65.78" x2="12.964" y2="65.78" gradientUnits="userSpaceOnUse"><stop stop-color="#6888C8"/><stop offset="1" stop-color="#458DFC"/></linearGradient><linearGradient id="g" x1="43.991" y1="71.512" x2="12.964" y2="71.512" gradientUnits="userSpaceOnUse"><stop stop-color="#6CBCFC"/><stop offset="1" stop-color="#458DFC"/></linearGradient><clipPath id="a"><path fill="#fff" transform="translate(.929)" d="M0 0h64.888v95H0z"/></clipPath></defs></svg>