<svg width="67" height="96" fill="none" xmlns="http://www.w3.org/2000/svg"><path d="M66.6 4.31v86.396c0 2.384-1.848 4.31-4.135 4.31H4.135C1.848 95 0 93.074 0 90.706V4.31C0 1.926 1.848 0 4.135 0H62.48c2.272 0 4.12 1.926 4.12 4.31z" fill="url(#a)"/><path d="M62.357 7.947v79.106c0 2.183-1.623 3.947-3.633 3.947H7.471c-2.01-.014-3.634-1.778-3.634-3.947V7.947C3.837 5.764 5.461 4 7.471 4h51.266c1.997 0 3.62 1.764 3.62 3.947z" fill="url(#b)"/><path d="M25.78 18.252v3.931a.489.489 0 0 1-.485.505h-4.62a.489.489 0 0 0-.484.506v4.815a.489.489 0 0 1-.485.505h-3.772a.489.489 0 0 1-.484-.505v-4.816a.489.489 0 0 0-.485-.505H10.36a.489.489 0 0 1-.484-.505v-3.931c0-.285.212-.506.484-.506h4.62a.489.489 0 0 0 .485-.505v-4.815c0-.284.212-.506.485-.506h3.771c.273 0 .485.222.485.506v4.815c0 .284.212.505.484.505h4.605c.273 0 .485.221.485.506z" fill="url(#c)"/><path opacity=".5" d="M56.194 39.677H10.406a.555.555 0 0 1-.545-.569v-1.815c0-.316.242-.569.545-.569h45.788c.303 0 .545.253.545.569v1.815c-.015.316-.242.569-.545.569z" fill="url(#d)"/><path d="M56.194 17.052h-22.72a.555.555 0 0 1-.545-.569v-1.8c0-.315.242-.568.545-.568h22.72c.303 0 .545.253.545.568V16.5c-.015.3-.242.553-.545.553z" fill="url(#e)"/><path opacity=".5" d="M49.47 24.725H33.473a.555.555 0 0 1-.545-.569v-1.815c0-.316.242-.569.545-.569H49.47c.303 0 .545.253.545.569v1.816c-.015.315-.242.568-.545.568z" fill="url(#f)"/><path opacity=".5" d="M56.194 48.297H10.406a.555.555 0 0 1-.545-.568v-1.816c0-.316.242-.568.545-.568h45.788c.303 0 .545.252.545.568v1.816c-.015.316-.242.568-.545.568z" fill="url(#g)"/><path opacity=".5" d="M56.194 56.918H10.406a.555.555 0 0 1-.545-.569v-1.815c0-.316.242-.569.545-.569h45.788c.303 0 .545.253.545.569v1.831c-.015.3-.242.553-.545.553z" fill="url(#h)"/><path opacity=".5" d="M56.194 65.554H10.406a.555.555 0 0 1-.545-.568V63.17c0-.316.242-.568.545-.568h45.788c.303 0 .545.252.545.568v1.816c-.015.316-.242.568-.545.568z" fill="url(#i)"/><path opacity=".5" d="M56.194 74.175H10.406a.555.555 0 0 1-.545-.569v-1.815c0-.316.242-.569.545-.569h45.788c.303 0 .545.253.545.569v1.816c-.015.315-.242.568-.545.568z" fill="url(#j)"/><path opacity=".5" d="M56.194 82.795H10.406a.555.555 0 0 1-.545-.568v-1.816c0-.315.242-.568.545-.568h45.788c.303 0 .545.253.545.568v1.816c-.015.316-.242.568-.545.568z" fill="url(#k)"/><path opacity=".1" d="M66.6 4.31v86.396c0 2.384-1.848 4.31-4.135 4.31H4.135C1.848 95 0 93.074 0 90.706v-1.5C35.58 73.89 52.15 15.157 55.891 0h6.574C64.752 0 66.6 1.926 66.6 4.31z" fill="#1A6FB5" fill-opacity=".4"/><defs><linearGradient id="f" x1="32.929" y1="23.262" x2="50.006" y2="23.262" gradientUnits="userSpaceOnUse"><stop stop-color="#6CBCFC"/><stop offset="1" stop-color="#458DFC"/></linearGradient><linearGradient id="a" x1="91.138" y1="126" x2="-10.867" y2="-1.408" gradientUnits="userSpaceOnUse"><stop offset=".306" stop-color="#6888C8"/><stop offset="1" stop-color="#69B8FC"/></linearGradient><linearGradient id="c" x1="9.593" y1="9.5" x2="24.869" y2="33.435" gradientUnits="userSpaceOnUse"><stop stop-color="#B0F4FF"/><stop offset=".369" stop-color="#80E4FD"/><stop offset="1" stop-color="#6CDDFC"/></linearGradient><linearGradient id="d" x1="9.872" y1="38.207" x2="56.731" y2="38.207" gradientUnits="userSpaceOnUse"><stop stop-color="#6CBCFC"/><stop offset="1" stop-color="#458DFC"/></linearGradient><linearGradient id="e" x1="32.929" y1="15.584" x2="56.731" y2="15.584" gradientUnits="userSpaceOnUse"><stop stop-color="#6CBCFC"/><stop offset="1" stop-color="#458DFC"/></linearGradient><linearGradient id="b" x1="8.274" y1="7.046" x2="58.269" y2="76.086" gradientUnits="userSpaceOnUse"><stop offset=".306" stop-color="#fff"/><stop offset="1" stop-color="#fff"/></linearGradient><linearGradient id="g" x1="9.872" y1="46.832" x2="56.731" y2="46.832" gradientUnits="userSpaceOnUse"><stop stop-color="#6CBCFC"/><stop offset="1" stop-color="#458DFC"/></linearGradient><linearGradient id="h" x1="9.872" y1="55.456" x2="56.731" y2="55.456" gradientUnits="userSpaceOnUse"><stop stop-color="#6CBCFC"/><stop offset="1" stop-color="#458DFC"/></linearGradient><linearGradient id="i" x1="9.872" y1="64.081" x2="56.731" y2="64.081" gradientUnits="userSpaceOnUse"><stop stop-color="#6CBCFC"/><stop offset="1" stop-color="#458DFC"/></linearGradient><linearGradient id="j" x1="9.872" y1="72.705" x2="56.731" y2="72.705" gradientUnits="userSpaceOnUse"><stop stop-color="#6CBCFC"/><stop offset="1" stop-color="#458DFC"/></linearGradient><linearGradient id="k" x1="9.872" y1="81.33" x2="56.731" y2="81.33" gradientUnits="userSpaceOnUse"><stop stop-color="#6CBCFC"/><stop offset="1" stop-color="#458DFC"/></linearGradient></defs></svg>